<?xml version="1.0" standalone="no"?>
<!DOCTYPE svg PUBLIC "-//W3C//DTD SVG 20010904//EN"
 "http://www.w3.org/TR/2001/REC-SVG-20010904/DTD/svg10.dtd">
<svg version="1.0" xmlns="http://www.w3.org/2000/svg"
 width="300.000000pt" height="78.000000pt" viewBox="0 0 300.000000 78.000000"
 preserveAspectRatio="xMidYMid meet">
<metadata>
Created by potrace 1.10, written by Peter Selinger 2001-2011
</metadata>
<g transform="translate(0.000000,78.000000) scale(0.100000,-0.100000)"
fill="#000000" stroke="none">
<path d="M352 679 c-64 -12 -140 -58 -178 -107 -18 -24 -34 -48 -36 -54 -3 -8
-12 -6 -28 5 -37 26 -47 20 -18 -10 24 -26 26 -33 21 -99 -6 -82 13 -156 54
-204 13 -17 21 -35 17 -41 -5 -8 -3 -9 5 -4 7 4 22 -1 34 -13 49 -45 88 -57
182 -57 103 0 148 18 213 83 65 65 99 170 83 256 -8 42 -6 47 20 72 35 34 30
43 -9 16 l-28 -21 -19 35 c-56 104 -192 166 -313 143z m139 -34 c58 -20 112
-65 145 -121 l27 -45 -36 -37 c-36 -38 -97 -143 -97 -168 0 -8 -4 -14 -10 -14
-5 0 -10 11 -10 25 0 13 -8 40 -17 59 -16 34 -15 37 3 72 10 20 36 56 57 80
21 24 34 44 29 44 -14 0 -97 -66 -114 -92 l-16 -23 -32 35 c-34 38 -35 35 -6
-21 l19 -37 -27 -43 c-25 -42 -26 -43 -26 -16 0 16 4 26 10 22 6 -3 10 1 10
11 0 18 -141 164 -159 164 -7 0 6 -21 28 -47 22 -27 52 -72 66 -102 30 -58 46
-139 27 -127 -7 4 -12 17 -12 29 0 33 -43 118 -80 160 -39 45 -48 43 -21 -4
17 -31 46 -138 38 -145 -1 -1 -15 22 -31 51 -15 30 -47 75 -70 100 -47 50 -47
55 13 118 76 81 186 108 292 72z m-290 -317 c20 -62 25 -133 9 -143 -12 -8
-67 77 -80 125 -11 40 -13 104 -4 138 6 22 8 20 31 -19 13 -24 33 -69 44 -101z
m474 63 c-1 -57 -8 -91 -24 -122 -25 -51 -49 -85 -55 -78 -8 8 25 152 43 189
10 19 21 47 25 63 11 45 14 31 11 -52z m-241 -80 c-13 -40 -24 -82 -24 -92 0
-11 -4 -19 -10 -19 -13 0 -13 1 6 74 14 52 43 120 50 113 1 -1 -9 -35 -22 -76z
m166 17 c-15 -34 -24 -73 -24 -111 l-1 -58 -54 -27 c-77 -37 -166 -37 -244 2
-63 30 -71 43 -30 48 25 3 28 7 25 33 -2 17 -14 57 -27 90 -14 32 -23 61 -20
63 5 6 46 -76 61 -123 l13 -40 1 60 c2 51 3 56 11 30 4 -16 11 -47 14 -67 5
-33 10 -38 33 -38 l27 -1 -25 -14 c-30 -17 -11 -20 24 -3 21 9 34 8 66 -5 43
-17 56 -8 15 11 -20 9 -25 19 -24 44 1 32 1 32 10 8 6 -18 8 -10 5 30 -2 32 1
65 8 78 10 19 12 16 12 -31 1 -30 4 -69 8 -88 5 -29 11 -34 35 -36 27 -2 29 1
35 44 6 46 55 167 64 159 3 -3 -6 -29 -18 -58z m-217 -96 c-6 -25 -26 -24 -31
1 -2 12 1 15 12 11 10 -4 16 -1 16 7 0 7 2 10 5 8 2 -3 2 -15 -2 -27z m139 -4
c-7 -7 -12 -8 -12 -2 0 14 12 26 19 19 2 -3 -1 -11 -7 -17z"/>
<path d="M928 504 c-35 -19 -59 -65 -61 -118 -4 -95 54 -152 148 -144 29 2 65
12 79 21 22 15 26 25 26 67 l0 50 -60 0 c-47 0 -60 -3 -60 -15 0 -11 11 -15
40 -15 37 0 40 -2 40 -28 0 -21 -7 -32 -25 -40 -88 -40 -163 18 -152 115 7 62
38 93 94 93 42 0 83 -25 83 -50 0 -5 7 -7 15 -4 23 9 18 30 -16 58 -36 30
-106 35 -151 10z"/>
<path d="M2448 506 c-10 -7 -18 -23 -18 -35 0 -11 -4 -21 -10 -21 -5 0 -10 -7
-10 -15 0 -8 5 -15 10 -15 6 0 10 -33 10 -78 0 -83 9 -102 47 -102 26 0 32 27
7 32 -14 2 -17 17 -18 76 -1 62 1 72 17 72 9 0 17 7 17 15 0 8 -9 15 -19 15
-17 0 -19 5 -14 35 6 39 5 40 -19 21z"/>
<path d="M2720 380 c0 -133 1 -140 20 -140 18 0 20 7 20 78 0 85 8 102 51 102
34 0 39 -14 39 -107 0 -64 2 -74 17 -71 9 2 16 6 15 11 -1 4 -2 43 -2 86 0 59
-4 84 -16 95 -17 18 -79 22 -89 6 -13 -22 -20 -8 -17 35 4 40 2 45 -17 45 -20
0 -21 -4 -21 -140z"/>
<path d="M1160 345 c0 -98 1 -105 20 -105 18 0 20 7 20 78 0 88 7 105 41 100
16 -2 25 2 27 15 3 13 -3 17 -24 17 -15 0 -33 -8 -40 -17 -13 -17 -13 -17 -14
0 0 9 -7 17 -15 17 -12 0 -15 -18 -15 -105z"/>
<path d="M1309 424 c-19 -20 -24 -36 -24 -79 0 -71 29 -105 90 -105 40 0 85
27 85 50 0 15 -30 12 -46 -5 -16 -16 -52 -20 -70 -7 -11 7 -34 45 -34 56 0 3
36 6 79 6 l79 0 -9 38 c-10 47 -41 72 -88 72 -27 0 -44 -7 -62 -26z m105 -20
c27 -27 18 -34 -45 -34 -61 0 -63 2 -36 38 13 17 62 15 81 -4z"/>
<path d="M1533 435 c-49 -34 -49 -146 0 -180 36 -25 94 -19 125 12 24 24 25
28 9 31 -10 2 -26 -3 -36 -12 -35 -32 -86 -14 -104 37 -6 15 2 17 74 17 l81 0
-7 33 c-13 65 -90 99 -142 62z m95 -27 c26 -26 13 -38 -43 -38 -59 0 -60 1
-45 31 12 22 68 27 88 7z"/>
<path d="M1720 345 c0 -83 3 -105 14 -105 10 0 15 20 18 80 3 85 12 100 54
100 35 0 44 -20 44 -102 0 -63 3 -78 15 -78 22 0 21 156 -1 188 -18 27 -69 30
-96 5 -17 -15 -18 -15 -18 0 0 10 -7 17 -15 17 -12 0 -15 -18 -15 -105z"/>
<path d="M1915 428 c32 -128 53 -183 71 -186 16 -2 22 10 39 80 l20 83 19 -83
c28 -116 45 -113 85 17 36 115 35 111 16 111 -9 0 -20 -21 -30 -57 -33 -117
-30 -116 -51 -25 -16 71 -22 82 -39 80 -14 -2 -22 -14 -27 -43 -5 -22 -14 -58
-20 -80 l-11 -40 -21 80 c-16 57 -27 81 -40 83 -13 3 -16 -1 -11 -20z"/>
<path d="M2232 434 c-24 -17 -30 -44 -8 -44 7 0 19 7 26 16 9 10 26 14 49 12
28 -2 37 -8 39 -25 3 -20 -2 -23 -49 -29 -58 -8 -89 -31 -89 -67 0 -51 78 -76
128 -41 20 14 22 14 22 0 0 -9 6 -16 14 -16 21 0 10 180 -12 198 -22 17 -93
15 -120 -4z m92 -145 c-23 -25 -70 -25 -84 0 -12 24 -3 32 55 46 35 9 40 8 43
-8 2 -10 -4 -27 -14 -38z"/>
<path d="M2553 426 c-25 -21 -28 -31 -28 -81 0 -50 3 -60 28 -81 37 -31 86
-32 115 -1 25 27 28 43 8 50 -8 3 -18 -5 -25 -19 -12 -27 -57 -34 -79 -12 -16
16 -16 110 0 126 20 20 69 15 75 -8 3 -11 11 -20 19 -20 24 0 26 21 3 46 -30
32 -79 32 -116 0z"/>
<path d="M625 160 c3 -5 11 -10 16 -10 6 0 7 5 4 10 -3 6 -11 10 -16 10 -6 0
-7 -4 -4 -10z"/>
</g>
</svg>
