<?xml version="1.0" standalone="no"?>
<!DOCTYPE svg PUBLIC "-//W3C//DTD SVG 20010904//EN"
 "http://www.w3.org/TR/2001/REC-SVG-20010904/DTD/svg10.dtd">
<svg version="1.0" xmlns="http://www.w3.org/2000/svg"
 width="300.000000pt" height="78.000000pt" viewBox="0 0 300.000000 78.000000"
 preserveAspectRatio="xMidYMid meet">
<metadata>
Created by potrace 1.10, written by Peter Selinger 2001-2011
</metadata>
<g transform="translate(0.000000,78.000000) scale(0.100000,-0.100000)"
fill="#000000" stroke="none">
<path d="M319 670 c-82 -25 -124 -61 -185 -159 -2 -1 -13 4 -26 13 -34 24 -44
19 -18 -9 22 -23 24 -35 25 -123 0 -101 12 -139 57 -189 12 -12 17 -27 13 -34
-6 -8 -4 -10 4 -4 7 4 22 -1 34 -13 42 -40 108 -62 184 -62 63 0 80 4 139 35
41 22 75 33 88 30 18 -5 19 -4 5 7 -15 10 -14 16 16 60 40 58 58 134 49 206
-6 49 -4 56 22 83 31 33 20 39 -19 9 l-25 -20 -12 30 c-16 39 -91 107 -143
130 -63 27 -142 31 -208 10z m191 -35 c60 -30 99 -64 125 -109 l25 -43 -36
-39 c-19 -21 -51 -70 -69 -109 -27 -55 -35 -65 -40 -50 -4 11 -13 37 -20 59
-13 35 -12 42 6 78 11 21 36 57 56 78 19 22 31 40 25 40 -14 0 -109 -76 -120
-97 -9 -15 -13 -13 -37 15 -15 18 -29 31 -31 29 -2 -2 5 -23 17 -47 19 -39 19
-44 5 -58 -9 -9 -16 -11 -16 -6 0 26 -136 164 -161 164 -5 0 10 -24 34 -53 43
-53 82 -132 94 -188 4 -23 3 -30 -5 -25 -7 4 -12 15 -12 24 0 28 -45 116 -80
155 -35 41 -51 43 -27 5 16 -24 49 -139 42 -146 -2 -2 -15 18 -28 45 -14 26
-43 69 -66 95 -23 25 -41 49 -41 54 0 14 51 74 85 100 19 14 52 33 72 40 49
18 157 13 203 -11z m-334 -249 c27 -57 36 -89 37 -135 1 -34 -2 -61 -8 -62
-19 -4 -74 102 -80 156 -7 49 0 115 11 115 3 0 21 -33 40 -74z m497 -31 c-7
-61 -54 -164 -74 -165 -12 0 12 114 39 182 23 58 28 66 33 46 4 -13 5 -41 2
-63z m-213 4 c0 -6 -4 -7 -10 -4 -5 3 -10 11 -10 16 0 6 5 7 10 4 6 -3 10 -11
10 -16z m140 -27 c-24 -64 -40 -152 -27 -152 19 0 -15 -29 -61 -50 -71 -34
-162 -32 -235 4 -64 31 -72 46 -26 46 29 0 30 1 24 33 -4 17 -18 59 -31 92
-13 32 -22 61 -19 63 5 6 46 -76 61 -123 l13 -40 1 60 c1 43 4 54 10 40 5 -11
9 -34 9 -52 1 -46 10 -63 35 -63 21 -1 21 -1 2 -15 -24 -18 -7 -20 28 -3 21 9
34 8 66 -5 43 -17 56 -8 15 11 -20 9 -25 18 -24 44 l1 33 9 -30 c6 -23 7 -15
6 32 -2 77 13 67 22 -14 6 -56 7 -58 36 -61 30 -3 31 -2 44 59 11 55 45 139
55 139 2 0 -4 -22 -14 -48z m-200 17 c0 -5 -4 -9 -10 -9 -5 0 -10 7 -10 16 0
8 5 12 10 9 6 -3 10 -10 10 -16z m36 -26 c-10 -10 -19 5 -10 18 6 11 8 11 12
0 2 -7 1 -15 -2 -18z m-6 -28 c0 -8 -4 -15 -10 -15 -5 0 -10 7 -10 15 0 8 5
15 10 15 6 0 10 -7 10 -15z m-16 -31 c12 -5 13 -10 4 -30 -6 -13 -17 -24 -24
-24 -24 0 -44 12 -44 27 0 8 4 12 9 9 5 -3 14 1 21 9 14 17 13 17 34 9z m116
-34 c0 -5 -4 -10 -10 -10 -5 0 -10 5 -10 10 0 6 5 10 10 10 6 0 10 -4 10 -10z"/>
<path d="M940 513 c-89 -33 -103 -195 -21 -250 44 -30 122 -31 169 -3 29 18
32 24 32 70 l0 50 -60 0 c-47 0 -60 -3 -60 -15 0 -11 11 -15 40 -15 37 0 40
-2 40 -28 0 -33 -31 -52 -83 -52 -43 0 -73 22 -87 66 -26 77 17 154 85 154 43
0 75 -15 75 -35 0 -19 20 -29 33 -16 15 15 -8 56 -40 70 -25 11 -96 14 -123 4z"/>
<path d="M2448 509 c-10 -5 -18 -21 -18 -34 0 -16 -6 -25 -15 -25 -8 0 -15 -7
-15 -15 0 -8 7 -15 15 -15 12 0 15 -15 15 -78 0 -47 5 -83 12 -90 17 -17 58
-15 58 3 0 8 -7 15 -15 15 -12 0 -15 13 -15 59 0 33 -3 66 -6 75 -4 12 0 16
15 16 12 0 21 6 21 15 0 8 -8 15 -18 15 -15 0 -17 6 -14 35 5 39 4 39 -20 24z"/>
<path d="M2720 380 c0 -133 1 -140 20 -140 18 0 20 7 20 78 0 82 9 102 45 102
36 0 45 -20 45 -102 0 -73 1 -78 21 -78 21 0 21 4 17 91 -3 75 -8 94 -23 105
-22 16 -81 19 -90 4 -13 -22 -20 -8 -17 35 4 40 2 45 -17 45 -20 0 -21 -4 -21
-140z"/>
<path d="M1160 345 c0 -98 1 -105 20 -105 18 0 20 7 20 71 0 82 12 111 43 107
14 -2 23 3 25 15 3 13 -3 17 -25 17 -16 0 -34 -5 -41 -12 -9 -9 -12 -9 -12 0
0 7 -7 12 -15 12 -12 0 -15 -18 -15 -105z"/>
<path d="M1306 419 c-19 -23 -26 -42 -26 -74 0 -64 37 -105 94 -105 41 0 86
26 86 50 0 15 -30 12 -46 -5 -16 -16 -51 -20 -71 -7 -6 4 -16 20 -22 35 l-11
27 81 0 c70 0 80 2 75 16 -3 9 -6 22 -6 30 0 30 -47 64 -89 64 -32 0 -44 -6
-65 -31z m109 -19 c10 -11 16 -23 13 -26 -3 -3 -31 -4 -62 -2 -56 3 -56 3 -41
26 20 28 65 29 90 2z"/>
<path d="M1523 426 c-24 -21 -27 -31 -27 -81 0 -50 3 -60 27 -81 40 -34 99
-33 135 3 25 25 25 27 7 34 -14 5 -24 1 -34 -12 -19 -26 -66 -25 -85 3 -29 42
-22 48 59 48 73 0 75 1 75 24 0 14 -12 38 -26 55 -33 40 -89 43 -131 7z m107
-25 c15 -30 14 -31 -45 -31 -57 0 -66 8 -39 34 22 23 71 20 84 -3z"/>
<path d="M1717 348 c1 -85 4 -104 17 -106 13 -3 16 8 16 65 0 78 17 113 56
113 32 0 46 -36 43 -115 -2 -49 0 -61 14 -63 15 -3 17 7 17 86 0 73 -3 92 -18
105 -21 19 -64 22 -93 7 -13 -7 -19 -7 -19 0 0 5 -8 10 -17 10 -16 0 -18 -11
-16 -102z"/>
<path d="M1905 440 c3 -5 18 -52 34 -102 22 -75 31 -94 47 -96 18 -3 23 7 39
73 9 41 19 75 20 75 2 0 11 -34 20 -76 15 -66 19 -75 37 -72 17 2 26 21 49 98
34 111 33 110 14 110 -17 0 -16 2 -43 -90 l-19 -65 -18 78 c-16 66 -22 77 -40
77 -18 0 -23 -9 -34 -67 -8 -38 -17 -74 -20 -81 -4 -7 -15 24 -25 68 -17 73
-21 80 -43 80 -13 0 -21 -4 -18 -10z"/>
<path d="M2222 423 c-24 -24 -25 -28 -9 -31 10 -2 27 4 37 13 27 24 84 17 88
-12 3 -19 -3 -22 -45 -28 -26 -4 -58 -14 -70 -21 -28 -18 -31 -64 -5 -87 21
-20 74 -22 105 -6 16 9 22 9 25 0 2 -6 11 -11 20 -11 15 0 16 10 12 89 -7 108
-16 121 -82 121 -40 0 -54 -5 -76 -27z m102 -134 c-12 -13 -28 -19 -48 -17
-26 2 -31 7 -31 28 0 21 6 26 38 31 20 3 41 9 45 13 16 17 12 -37 -4 -55z"/>
<path d="M2559 437 c-25 -19 -39 -53 -39 -96 0 -93 98 -137 155 -69 20 24 23
33 13 39 -21 14 -28 11 -38 -16 -11 -29 -50 -34 -74 -9 -18 18 -21 85 -6 115
15 27 70 26 77 -1 3 -12 12 -20 21 -18 24 5 25 25 3 47 -24 24 -86 28 -112 8z"/>
</g>
</svg>
